Coordinates
version=1
nRows=21
nColumns=22
inDegrees=yes

Units are S.I. units (second, meters, Newtons, ...)
If the header above contains a line with 'inDegrees', this indicates whether rotational values are in degrees (yes) or radians (no).

endheader
time	pelvis_tilt	pelvis_list	pelvis_rotation	pelvis_tx	pelvis_ty	pelvis_tz	hip_flexion_r	hip_adduction_r	hip_rotation_r	knee_angle_r	ankle_angle_r	subtalar_angle_r	hip_flexion_l	hip_adduction_l	hip_rotation_l	knee_angle_l	ankle_angle_l	subtalar_angle_l	lumbar_extension	lumbar_bending	lumbar_rotation
      2.72000000	     -4.81888913	     -8.02798619	      0.83704504	      0.22248183	      0.94665283	     -0.26025527	      4.75645884	     10.30445864	     -3.15041762	    -26.03555822	     17.14487655	      4.13371764	     30.64483416	    -10.85789320	      3.85809526	    -15.70024603	      6.44009909	     -2.25035929	     -2.34074218	      7.54037735	      1.55280077
      2.73000000	     -4.73100182	     -7.86393135	      0.98402685	      0.21536338	      0.94805836	     -0.25898987	      4.90302492	     10.24504762	     -3.34365410	    -25.60813743	     16.97158443	      3.81386096	     30.61967371	    -10.58128900	      3.89365573	    -16.66948350	      6.52967027	     -1.92170853	     -2.42594399	      7.39475524	      1.30783700
      2.74000000	     -4.62925490	     -7.68415027	      1.13566293	      0.20841769	      0.94953044	     -0.25783496	      5.01359481	     10.15865956	     -3.53352845	    -25.16261703	     16.76947458	      3.52216497	     30.55705161	    -10.27013312	      3.96991564	    -17.76306278	      6.64410261	     -1.57488861	     -2.51372483	      7.23358946	      1.06726617
      2.75000000	     -4.52072039	     -7.48747727	      1.29693900	      0.20165141	      0.95105103	     -0.25680744	      5.08610387	     10.04094179	     -3.73076333	    -24.68337677	     16.56518010	      3.31742050	     30.44153264	     -9.91858123	      4.10716683	    -18.92675382	      6.79091353	     -1.28240688	     -2.59232932	      7.05863063	      0.82694237
      2.76000000	     -4.41304804	     -7.29378005	      1.43031144	      0.19499599	      0.95257909	     -0.25582102	      5.15431660	      9.91896674	     -3.90924603	    -24.21093299	     16.32781807	      3.08076282	     30.29275914	     -9.57318653	      4.24630330	    -20.16673587	      7.01193079	     -0.89472919	     -2.66663707	      6.88738012	      0.62500086
      2.77000000	     -4.32132906	     -7.09733574	      1.51312535	      0.18843581	      0.95408732	     -0.25484964	      5.23606552	      9.78906773	     -4.04511630	    -23.75159191	     16.06394377	      2.82338744	     30.11143858	     -9.24202185	      4.35397700	    -21.44699672	      7.30873398	     -0.41377621	     -2.72356330	      6.71636876	      0.48214832
      2.78000000	     -4.23286466	     -6.90493376	      1.61279266	      0.18199631	      0.95557041	     -0.25397004	      5.29407842	      9.64980673	     -4.21272876	    -23.25786838	     15.82265014	      2.68730170	     29.87634575	     -8.89351608	      4.54108534	    -22.71895515	      7.63388374	     -0.08316793	     -2.76527716	      6.55037487	      0.32108714
      2.79000000	     -4.16788799	     -6.72148221	      1.64580610	      0.17559348	      0.95697749	     -0.25305322	      5.39107242	      9.51978036	     -4.32539303	    -22.80306189	     15.54985528	      2.49618435	     29.62179959	     -8.58661976	      4.66808896	    -24.00800510	      8.05011405	      0.42018926	     -2.78870227	      6.39360035	      0.21923494
      2.80000000	     -4.12108196	     -6.55465383	      1.65837184	      0.16927450	      0.95830011	     -0.25215488	      5.49231772	      9.40014744	     -4.44645709	    -22.33434949	     15.29463688	      2.35742647	     29.33684312	     -8.30393648	      4.80260601	    -25.28231171	      8.50227764	      0.84964285	     -2.78627583	      6.25310668	      0.14690037
      2.81000000	     -4.10065854	     -6.39890550	      1.62480479	      0.16300452	      0.95951265	     -0.25124804	      5.62562580	      9.28846110	     -4.54191330	    -21.88557320	     15.03601924	      2.22655793	     29.03385224	     -8.05917567	      4.89042527	    -26.54287947	      9.00055869	      1.30262777	     -2.75716467	      6.12615215	      0.11479338
      2.82000000	     -4.09889538	     -6.26654172	      1.56422288	      0.15678406	      0.96060524	     -0.25033229	      5.77713689	      9.19859179	     -4.63529247	    -21.44365452	     14.78853393	      2.11463929	     28.71186458	     -7.85858703	      4.95503885	    -27.78376023	      9.51884934	      1.74080155	     -2.70669207	      6.02103387	      0.10946969
      2.83000000	     -4.10699396	     -6.17710813	      1.48122604	      0.15058540	      0.96157454	     -0.24940587	      5.94195944	      9.15602620	     -4.70253840	    -21.01119491	     14.54152288	      2.04285114	     28.37587679	     -7.72482621	      4.99262283	    -29.01427327	     10.03581340	      2.09441719	     -2.64931830	      5.96362945	      0.10106845
      2.84000000	     -4.13851402	     -6.11198798	      1.36997321	      0.14444201	      0.96240566	     -0.24848104	      6.13146072	      9.13546418	     -4.76604344	    -20.58881122	     14.30963220	      1.97695085	     28.02956315	     -7.64553948	      4.97843832	    -30.21781353	     10.55244225	      2.45415702	     -2.56414205	      5.93129864	      0.12874197
      2.85000000	     -4.18295342	     -6.05407247	      1.24664010	      0.13831091	      0.96311343	     -0.24758276	      6.35815967	      9.11772454	     -4.82802394	    -20.21329051	     14.07193007	      1.90980736	     27.66118761	     -7.59637617	      4.92870144	    -31.38254573	     11.05587119	      2.85310926	     -2.46950154	      5.90660186	      0.13833146
      2.86000000	     -4.23446601	     -6.05163657	      1.11250537	      0.13221149	      0.96370253	     -0.24670591	      6.59063030	      9.15930619	     -4.86352265	    -19.83928879	     13.84433453	      1.88652342	     27.28275383	     -7.62956281	      4.84357872	    -32.52647941	     11.51804777	      3.12374732	     -2.36766791	      5.94546133	      0.15176661
      2.87000000	     -4.29573337	     -6.08465534	      0.97628470	      0.12616847	      0.96418258	     -0.24586617	      6.83108360	      9.23533729	     -4.89397685	    -19.46774076	     13.63421067	      1.89053518	     26.88700099	     -7.72480566	      4.71885805	    -33.63366367	     11.93877090	      3.30909372	     -2.25112419	      6.02401039	      0.16978122
      2.88000000	     -4.36313896	     -6.14554027	      0.84956156	      0.12012982	      0.96457334	     -0.24509198	      7.09933545	      9.33586553	     -4.91516292	    -19.13376339	     13.41090333	      1.90420919	     26.47529793	     -7.86595083	      4.57253248	    -34.70296217	     12.32557588	      3.53010400	     -2.13170335	      6.13651014	      0.14717484
      2.89000000	     -4.43196835	     -6.23492033	      0.73332728	      0.11411512	      0.96489499	     -0.24437846	      7.38346378	      9.46139649	     -4.93549916	    -18.82643783	     13.18922012	      1.94020445	     26.03789162	     -8.05290051	      4.40998744	    -35.72709775	     12.67692756	      3.71378870	     -2.01066200	      6.28073284	      0.10196226
      2.90000000	     -4.50481283	     -6.34416355	      0.64262481	      0.10811937	      0.96516049	     -0.24376603	      7.69532777	      9.59643927	     -4.98068250	    -18.55978410	     12.95339907	      2.00568755	     25.58017902	     -8.26824824	      4.24336230	    -36.70411698	     12.99838775	      3.97422157	     -1.88398204	      6.45047544	      0.01702496
      2.91000000	     -4.56714370	     -6.47989922	      0.56495459	      0.10217424	      0.96540412	     -0.24322035	      7.98848537	      9.75914501	     -4.99234547	    -18.28539357	     12.74136767	      2.08640896	     25.08039577	     -8.52521839	      4.05756402	    -37.62859127	     13.26461107	      4.00869176	     -1.76443845	      6.65076794	     -0.09157468
      2.92000000	     -4.62247745	     -6.62906054	      0.51652880	      0.09623995	      0.96563245	     -0.24278687	      8.30310698	      9.92219185	     -5.04488938	    -18.05831641	     12.50947304	      2.18621787	     24.54546905	     -8.79464619	      3.88571135	    -38.49943123	     13.51265198	      4.03596900	     -1.65145540	      6.86971806	     -0.22495709
